# xmcd
# 
# Track frame offsets:
#     150
#     15235
#     29420
#     47697
#     64877
#     79897
#     96097
#     112097
#     126535
#     147657
#     161990
#     169972
#     185097
#     206025
# 
# Disc length: 2954
# 
# Revision: 1
# Processed by: cddbd v1.5.2PL0 Copyright (c) Steve Scherf et al.
# Submitted via: fre:ac v1.0.17
# 
DISCID=d60b880e
DTITLE=Various Artist - 歌のアルバム大全集 ？はてなのはね？ DISC 2
DYEAR=2000
DGENRE=アニメ
TTITLE0=塙一郎、CIAO - おしえてティラノサウルス
TTITLE1=こおろぎさとみ - あいつの名前はナマケモノ
TTITLE2=石原慎一 - 飛べ飛べコウモリ
TTITLE3=塙一郎 - キリンのキリコは眠れない
TTITLE4=Kween - ヘビメタ・スネーク
TTITLE5=知久寿焼（たま） - ニッポンのたぬき
TTITLE6=坂田おさむ - ただしい　こぶた
TTITLE7=山根麻衣 - クロック・ロックにわとりじゃん
TTITLE8=石原慎一、二又一成 - ライオンのドンファン
TTITLE9=影山ヒロノブ - イカスミダ、タコスミダ
TTITLE10=ウガンダ・トラ - ラッコのひみつ
TTITLE11=団しん也 - ウシのいぶくろ
TTITLE12=Keith R. Haines - 愛のうんち
TTITLE13=水木一郎、橋本潮 - アリとアリクイ
EXTD=YEAR: 2000
EXTT0=
EXTT1=
EXTT2=
EXTT3=
EXTT4=
EXTT5=
EXTT6=
EXTT7=
EXTT8=
EXTT9=
EXTT10=
EXTT11=
EXTT12=
EXTT13=
PLAYORDER=
